{
	"asset":{
		"generator":"Khronos glTF Blender I/O v4.0.44",
		"version":"2.0"
	},
	"scene":0,
	"scenes":[
		{
			"name":"Scene",
			"nodes":[
				4
			]
		}
	],
	"nodes":[
		{
			"mesh":0,
			"name":"Object_4",
			"rotation":[
				-0.00224943645298481,
				0.006874333135783672,
				0.016006359830498695,
				0.9998457431793213
			],
			"translation":[
				-0.059999994933605194,
				0,
				0
			]
		},
		{
			"children":[
				0
			],
			"name":"Cube_1"
		},
		{
			"children":[
				1
			],
			"name":"GLTF_SceneRootNode",
			"rotation":[
				0.70710688829422,
				0,
				0,
				0.7071066498756409
			]
		},
		{
			"children":[
				2
			],
			"name":"root"
		},
		{
			"children":[
				3
			],
			"name":"Sketchfab_model",
			"rotation":[
				-0.70710688829422,
				0,
				0,
				0.7071066498756409
			]
		}
	],
	"materials":[
		{
			"doubleSided":true,
			"name":"material",
			"pbrMetallicRoughness":{
				"baseColorFactor":[
					0.5173329710960388,
					0.22432999312877655,
					0.08552329987287521,
					1
				],
				"metallicFactor":0,
				"roughnessFactor":0.7086610198020935
			}
		}
	],
	"meshes":[
		{
			"name":"Object_0",
			"primitives":[
				{
					"attributes":{
						"POSITION":0,
						"NORMAL":1,
						"TEXCOORD_0":2
					},
					"indices":3,
					"material":0
				}
			]
		}
	],
	"accessors":[
		{
			"bufferView":0,
			"componentType":5126,
			"count":2371,
			"max":[
				3.470742702484131,
				3.3532602787017822,
				0.9815428256988525
			],
			"min":[
				-3.47074294090271,
				-5.495838165283203,
				-0.5427132844924927
			],
			"type":"VEC3"
		},
		{
			"bufferView":1,
			"componentType":5126,
			"count":2371,
			"type":"VEC3"
		},
		{
			"bufferView":2,
			"componentType":5126,
			"count":2371,
			"type":"VEC2"
		},
		{
			"bufferView":3,
			"componentType":5123,
			"count":7629,
			"type":"SCALAR"
		}
	],
	"bufferViews":[
		{
			"buffer":0,
			"byteLength":28452,
			"byteOffset":0,
			"target":34962
		},
		{
			"buffer":0,
			"byteLength":28452,
			"byteOffset":28452,
			"target":34962
		},
		{
			"buffer":0,
			"byteLength":18968,
			"byteOffset":56904,
			"target":34962
		},
		{
			"buffer":0,
			"byteLength":15258,
			"byteOffset":75872,
			"target":34963
		}
	],
	"buffers":[
		{
			"byteLength":91132,
			"uri":"BlenderAvatar.bin"
		}
	]
}
